<svg width="254" height="254" viewBox="0 0 254 254" fill="none" xmlns="http://www.w3.org/2000/svg">
<circle cx="127" cy="127" r="125.5" stroke="black" stroke-width="3"/>
<circle cx="127" cy="127" r="83.5" stroke="black" stroke-width="3"/>
<circle cx="127" cy="127" r="55.5" stroke="black" stroke-width="3"/>
<path d="M158.26 250.086L139.583 180.38M111.395 74.4305L92.9668 5.65642M4.23859 158.132L73.6099 139.544M180.616 111.565L248.798 93.2962M164.388 87.9904L215.388 36.9904M36.4903 215.888L86.4903 165.888M94.2337 249.714L113.128 179.199M139.707 73.6541L158.135 4.88M5.26845 93.0459L75.3184 111.816M180.382 140.55L249.572 158.79M167.51 165.888L217.51 215.888M38.6116 36.9904L88.6116 86.9904" stroke="black" stroke-width="3"/>
<path d="M116.147 21.2C116.147 19.9 116.377 18.63 116.837 17.39C117.317 16.13 118.007 14.99 118.907 13.97C119.807 12.93 120.907 12.11 122.207 11.51C123.507 10.89 124.987 10.58 126.647 10.58C128.607 10.58 130.297 11.01 131.717 11.87C133.157 12.73 134.227 13.85 134.927 15.23L131.747 17.42C131.387 16.62 130.917 15.99 130.337 15.53C129.757 15.05 129.137 14.72 128.477 14.54C127.817 14.34 127.167 14.24 126.527 14.24C125.487 14.24 124.577 14.45 123.797 14.87C123.037 15.29 122.397 15.84 121.877 16.52C121.357 17.2 120.967 17.96 120.707 18.8C120.467 19.64 120.347 20.48 120.347 21.32C120.347 22.26 120.497 23.17 120.797 24.05C121.097 24.91 121.517 25.68 122.057 26.36C122.617 27.02 123.277 27.55 124.037 27.95C124.817 28.33 125.667 28.52 126.587 28.52C127.247 28.52 127.917 28.41 128.597 28.19C129.277 27.97 129.907 27.62 130.487 27.14C131.067 26.66 131.517 26.04 131.837 25.28L135.227 27.23C134.807 28.29 134.117 29.19 133.157 29.93C132.217 30.67 131.157 31.23 129.977 31.61C128.797 31.99 127.627 32.18 126.467 32.18C124.947 32.18 123.557 31.87 122.297 31.25C121.037 30.61 119.947 29.77 119.027 28.73C118.127 27.67 117.417 26.49 116.897 25.19C116.397 23.87 116.147 22.54 116.147 21.2Z" fill="black"/>
<path d="M119.363 240.15C117.983 240.15 116.673 239.87 115.433 239.31C114.213 238.75 113.133 237.98 112.193 237C111.273 236 110.553 234.84 110.033 233.52C109.513 232.2 109.253 230.77 109.253 229.23C109.253 227.77 109.513 226.4 110.033 225.12C110.553 223.82 111.283 222.68 112.223 221.7C113.163 220.72 114.263 219.95 115.523 219.39C116.783 218.83 118.153 218.55 119.633 218.55C121.633 218.55 123.343 218.98 124.763 219.84C126.203 220.68 127.283 221.8 128.003 223.2L124.913 225.48C124.373 224.42 123.613 223.61 122.633 223.05C121.673 222.49 120.623 222.21 119.483 222.21C118.583 222.21 117.763 222.4 117.023 222.78C116.283 223.16 115.643 223.68 115.103 224.34C114.563 225 114.143 225.76 113.843 226.62C113.563 227.48 113.423 228.39 113.423 229.35C113.423 230.37 113.573 231.31 113.873 232.17C114.193 233.03 114.633 233.78 115.193 234.42C115.773 235.06 116.443 235.57 117.203 235.95C117.963 236.31 118.803 236.49 119.723 236.49C120.803 236.49 121.833 236.21 122.813 235.65C123.813 235.09 124.743 234.27 125.603 233.19V237.27C123.823 239.19 121.743 240.15 119.363 240.15ZM125.303 232.08H121.013V229.05H128.723V240H125.303V232.08ZM137.211 240.2C136.411 240.2 135.698 240.02 135.071 239.66C134.445 239.3 133.951 238.807 133.591 238.18V240H131.251V225.4H133.931V231.36C134.305 230.733 134.791 230.24 135.391 229.88C136.005 229.52 136.718 229.34 137.531 229.34C138.211 229.34 138.831 229.487 139.391 229.78C139.951 230.06 140.431 230.453 140.831 230.96C141.245 231.467 141.558 232.047 141.771 232.7C141.998 233.353 142.111 234.053 142.111 234.8C142.111 235.547 141.985 236.247 141.731 236.9C141.491 237.553 141.151 238.133 140.711 238.64C140.271 239.133 139.751 239.52 139.151 239.8C138.565 240.067 137.918 240.2 137.211 240.2ZM136.471 237.92C136.898 237.92 137.285 237.84 137.631 237.68C137.991 237.507 138.298 237.28 138.551 237C138.818 236.72 139.018 236.393 139.151 236.02C139.298 235.633 139.371 235.233 139.371 234.82C139.371 234.247 139.251 233.72 139.011 233.24C138.785 232.747 138.465 232.353 138.051 232.06C137.651 231.767 137.178 231.62 136.631 231.62C136.245 231.62 135.871 231.713 135.511 231.9C135.165 232.073 134.851 232.313 134.571 232.62C134.305 232.927 134.091 233.273 133.931 233.66V236.16C134.011 236.427 134.138 236.667 134.311 236.88C134.498 237.093 134.711 237.28 134.951 237.44C135.191 237.587 135.438 237.707 135.691 237.8C135.958 237.88 136.218 237.92 136.471 237.92Z" fill="black"/>
<path d="M177.201 47.15C175.821 47.15 174.511 46.87 173.271 46.31C172.051 45.75 170.971 44.98 170.031 44C169.111 43 168.391 41.84 167.871 40.52C167.351 39.2 167.091 37.77 167.091 36.23C167.091 34.77 167.351 33.4 167.871 32.12C168.391 30.82 169.121 29.68 170.061 28.7C171.001 27.72 172.101 26.95 173.361 26.39C174.621 25.83 175.991 25.55 177.471 25.55C179.471 25.55 181.181 25.98 182.601 26.84C184.041 27.68 185.121 28.8 185.841 30.2L182.751 32.48C182.211 31.42 181.451 30.61 180.471 30.05C179.511 29.49 178.461 29.21 177.321 29.21C176.421 29.21 175.601 29.4 174.861 29.78C174.121 30.16 173.481 30.68 172.941 31.34C172.401 32 171.981 32.76 171.681 33.62C171.401 34.48 171.261 35.39 171.261 36.35C171.261 37.37 171.411 38.31 171.711 39.17C172.031 40.03 172.471 40.78 173.031 41.42C173.611 42.06 174.281 42.57 175.041 42.95C175.801 43.31 176.641 43.49 177.561 43.49C178.641 43.49 179.671 43.21 180.651 42.65C181.651 42.09 182.581 41.27 183.441 40.19V44.27C181.661 46.19 179.581 47.15 177.201 47.15ZM183.141 39.08H178.851V36.05H186.561V47H183.141V39.08Z" fill="black"/>
<path d="M70.6067 47V25.7H84.9167V29.33H74.7467V34.82H83.2067V38.18H74.7467V47H70.6067Z" fill="black"/>
<path d="M185.685 222.51C185.685 223.71 185.375 224.72 184.755 225.54C184.135 226.34 183.295 226.95 182.235 227.37C181.195 227.79 180.055 228 178.815 228H168.525V206.7H179.925C180.925 206.7 181.785 206.97 182.505 207.51C183.245 208.03 183.805 208.71 184.185 209.55C184.585 210.37 184.785 211.23 184.785 212.13C184.785 213.15 184.525 214.12 184.005 215.04C183.485 215.96 182.725 216.64 181.725 217.08C182.945 217.44 183.905 218.09 184.605 219.03C185.325 219.97 185.685 221.13 185.685 222.51ZM181.515 221.73C181.515 221.19 181.405 220.71 181.185 220.29C180.965 219.85 180.665 219.51 180.285 219.27C179.925 219.01 179.505 218.88 179.025 218.88H172.665V224.49H178.815C179.315 224.49 179.765 224.37 180.165 224.13C180.585 223.87 180.915 223.53 181.155 223.11C181.395 222.69 181.515 222.23 181.515 221.73ZM172.665 210.24V215.61H178.185C178.645 215.61 179.065 215.5 179.445 215.28C179.825 215.06 180.125 214.75 180.345 214.35C180.585 213.95 180.705 213.47 180.705 212.91C180.705 212.37 180.595 211.9 180.375 211.5C180.175 211.1 179.895 210.79 179.535 210.57C179.195 210.35 178.805 210.24 178.365 210.24H172.665Z" fill="black"/>
<path d="M62.6448 228V206.7H70.3848C72.7048 206.7 74.6448 207.18 76.2048 208.14C77.7648 209.08 78.9348 210.36 79.7148 211.98C80.4948 213.58 80.8848 215.36 80.8848 217.32C80.8848 219.48 80.4548 221.36 79.5948 222.96C78.7348 224.56 77.5148 225.8 75.9348 226.68C74.3748 227.56 72.5248 228 70.3848 228H62.6448ZM76.7148 217.32C76.7148 215.94 76.4648 214.73 75.9648 213.69C75.4648 212.63 74.7448 211.81 73.8048 211.23C72.8648 210.63 71.7248 210.33 70.3848 210.33H66.7848V224.37H70.3848C71.7448 224.37 72.8948 224.07 73.8348 223.47C74.7748 222.85 75.4848 222.01 75.9648 220.95C76.4648 219.87 76.7148 218.66 76.7148 217.32ZM89.0794 228.2C88.2794 228.2 87.5661 228.02 86.9394 227.66C86.3127 227.3 85.8194 226.807 85.4594 226.18V228H83.1194V213.4H85.7994V219.36C86.1727 218.733 86.6594 218.24 87.2594 217.88C87.8727 217.52 88.5861 217.34 89.3994 217.34C90.0794 217.34 90.6994 217.487 91.2594 217.78C91.8194 218.06 92.2994 218.453 92.6994 218.96C93.1127 219.467 93.4261 220.047 93.6394 220.7C93.8661 221.353 93.9794 222.053 93.9794 222.8C93.9794 223.547 93.8527 224.247 93.5994 224.9C93.3594 225.553 93.0194 226.133 92.5794 226.64C92.1394 227.133 91.6194 227.52 91.0194 227.8C90.4327 228.067 89.7861 228.2 89.0794 228.2ZM88.3394 225.92C88.7661 225.92 89.1527 225.84 89.4994 225.68C89.8594 225.507 90.1661 225.28 90.4194 225C90.6861 224.72 90.8861 224.393 91.0194 224.02C91.1661 223.633 91.2394 223.233 91.2394 222.82C91.2394 222.247 91.1194 221.72 90.8794 221.24C90.6527 220.747 90.3327 220.353 89.9194 220.06C89.5194 219.767 89.0461 219.62 88.4994 219.62C88.1127 219.62 87.7394 219.713 87.3794 219.9C87.0327 220.073 86.7194 220.313 86.4394 220.62C86.1727 220.927 85.9594 221.273 85.7994 221.66V224.16C85.8794 224.427 86.0061 224.667 86.1794 224.88C86.3661 225.093 86.5794 225.28 86.8194 225.44C87.0594 225.587 87.3061 225.707 87.5594 225.8C87.8261 225.88 88.0861 225.92 88.3394 225.92Z" fill="black"/>
<path d="M209.483 85V63.7H217.223C219.543 63.7 221.483 64.18 223.043 65.14C224.603 66.08 225.773 67.36 226.553 68.98C227.333 70.58 227.723 72.36 227.723 74.32C227.723 76.48 227.293 78.36 226.433 79.96C225.573 81.56 224.353 82.8 222.773 83.68C221.213 84.56 219.363 85 217.223 85H209.483ZM223.553 74.32C223.553 72.94 223.303 71.73 222.803 70.69C222.303 69.63 221.583 68.81 220.643 68.23C219.703 67.63 218.563 67.33 217.223 67.33H213.623V81.37H217.223C218.583 81.37 219.733 81.07 220.673 80.47C221.613 79.85 222.323 79.01 222.803 77.95C223.303 76.87 223.553 75.66 223.553 74.32Z" fill="black"/>
<path d="M39.8468 79.51C39.8468 80.71 39.5368 81.72 38.9168 82.54C38.2968 83.34 37.4568 83.95 36.3968 84.37C35.3568 84.79 34.2168 85 32.9768 85H22.6868V63.7H34.0868C35.0868 63.7 35.9468 63.97 36.6668 64.51C37.4068 65.03 37.9668 65.71 38.3468 66.55C38.7468 67.37 38.9468 68.23 38.9468 69.13C38.9468 70.15 38.6868 71.12 38.1668 72.04C37.6468 72.96 36.8868 73.64 35.8868 74.08C37.1068 74.44 38.0668 75.09 38.7668 76.03C39.4868 76.97 39.8468 78.13 39.8468 79.51ZM35.6768 78.73C35.6768 78.19 35.5668 77.71 35.3468 77.29C35.1268 76.85 34.8268 76.51 34.4468 76.27C34.0868 76.01 33.6668 75.88 33.1868 75.88H26.8268V81.49H32.9768C33.4768 81.49 33.9268 81.37 34.3268 81.13C34.7468 80.87 35.0768 80.53 35.3168 80.11C35.5568 79.69 35.6768 79.23 35.6768 78.73ZM26.8268 67.24V72.61H32.3468C32.8068 72.61 33.2268 72.5 33.6068 72.28C33.9868 72.06 34.2868 71.75 34.5068 71.35C34.7468 70.95 34.8668 70.47 34.8668 69.91C34.8668 69.37 34.7568 68.9 34.5368 68.5C34.3368 68.1 34.0568 67.79 33.6968 67.57C33.3568 67.35 32.9668 67.24 32.5268 67.24H26.8268ZM48.0374 85.2C47.2374 85.2 46.5241 85.02 45.8974 84.66C45.2708 84.3 44.7774 83.8067 44.4174 83.18V85H42.0774V70.4H44.7574V76.36C45.1308 75.7333 45.6174 75.24 46.2174 74.88C46.8308 74.52 47.5441 74.34 48.3574 74.34C49.0374 74.34 49.6574 74.4867 50.2174 74.78C50.7774 75.06 51.2574 75.4533 51.6574 75.96C52.0708 76.4667 52.3841 77.0467 52.5974 77.7C52.8241 78.3533 52.9374 79.0533 52.9374 79.8C52.9374 80.5467 52.8108 81.2467 52.5574 81.9C52.3174 82.5533 51.9774 83.1333 51.5374 83.64C51.0974 84.1333 50.5774 84.52 49.9774 84.8C49.3908 85.0667 48.7441 85.2 48.0374 85.2ZM47.2974 82.92C47.7241 82.92 48.1108 82.84 48.4574 82.68C48.8174 82.5067 49.1241 82.28 49.3774 82C49.6441 81.72 49.8441 81.3933 49.9774 81.02C50.1241 80.6333 50.1974 80.2333 50.1974 79.82C50.1974 79.2467 50.0774 78.72 49.8374 78.24C49.6108 77.7467 49.2908 77.3533 48.8774 77.06C48.4774 76.7667 48.0041 76.62 47.4574 76.62C47.0708 76.62 46.6974 76.7133 46.3374 76.9C45.9908 77.0733 45.6774 77.3133 45.3974 77.62C45.1308 77.9267 44.9174 78.2733 44.7574 78.66V81.16C44.8374 81.4267 44.9641 81.6667 45.1374 81.88C45.3241 82.0933 45.5374 82.28 45.7774 82.44C46.0174 82.5867 46.2641 82.7067 46.5174 82.8C46.7841 82.88 47.0441 82.92 47.2974 82.92Z" fill="black"/>
<path d="M228.432 115.7H232.632L240.462 137H236.202L234.222 131.69H226.782L224.832 137H220.572L228.432 115.7ZM233.472 128.78L230.532 119.99L227.472 128.78H233.472Z" fill="black"/>
<path d="M24.1633 133.37V137H9.37332V115.7H23.8933V119.33H13.5133V124.46H22.4833V127.82H13.5133V133.37H24.1633ZM32.3509 137.2C31.5509 137.2 30.8376 137.02 30.2109 136.66C29.5842 136.3 29.0909 135.807 28.7309 135.18V137H26.3909V122.4H29.0709V128.36C29.4442 127.733 29.9309 127.24 30.5309 126.88C31.1442 126.52 31.8576 126.34 32.6709 126.34C33.3509 126.34 33.9709 126.487 34.5309 126.78C35.0909 127.06 35.5709 127.453 35.9709 127.96C36.3842 128.467 36.6976 129.047 36.9109 129.7C37.1376 130.353 37.2509 131.053 37.2509 131.8C37.2509 132.547 37.1242 133.247 36.8709 133.9C36.6309 134.553 36.2909 135.133 35.8509 135.64C35.4109 136.133 34.8909 136.52 34.2909 136.8C33.7042 137.067 33.0576 137.2 32.3509 137.2ZM31.6109 134.92C32.0376 134.92 32.4242 134.84 32.7709 134.68C33.1309 134.507 33.4376 134.28 33.6909 134C33.9576 133.72 34.1576 133.393 34.2909 133.02C34.4376 132.633 34.5109 132.233 34.5109 131.82C34.5109 131.247 34.3909 130.72 34.1509 130.24C33.9242 129.747 33.6042 129.353 33.1909 129.06C32.7909 128.767 32.3176 128.62 31.7709 128.62C31.3842 128.62 31.0109 128.713 30.6509 128.9C30.3042 129.073 29.9909 129.313 29.7109 129.62C29.4442 129.927 29.2309 130.273 29.0709 130.66V133.16C29.1509 133.427 29.2776 133.667 29.4509 133.88C29.6376 134.093 29.8509 134.28 30.0909 134.44C30.3309 134.587 30.5776 134.707 30.8309 134.8C31.0976 134.88 31.3576 134.92 31.6109 134.92Z" fill="black"/>
<path d="M225.501 184.37V188H210.711V166.7H225.231V170.33H214.851V175.46H223.821V178.82H214.851V184.37H225.501Z" fill="black"/>
<path d="M29.094 166.7H33.294L41.124 188H36.864L34.884 182.69H27.444L25.494 188H21.234L29.094 166.7ZM34.134 179.78L31.194 170.99L28.134 179.78H34.134ZM48.4202 188.2C47.6202 188.2 46.9069 188.02 46.2802 187.66C45.6536 187.3 45.1602 186.807 44.8002 186.18V188H42.4602V173.4H45.1402V179.36C45.5136 178.733 46.0002 178.24 46.6002 177.88C47.2136 177.52 47.9269 177.34 48.7402 177.34C49.4202 177.34 50.0402 177.487 50.6002 177.78C51.1602 178.06 51.6402 178.453 52.0402 178.96C52.4536 179.467 52.7669 180.047 52.9802 180.7C53.2069 181.353 53.3202 182.053 53.3202 182.8C53.3202 183.547 53.1936 184.247 52.9402 184.9C52.7002 185.553 52.3602 186.133 51.9202 186.64C51.4802 187.133 50.9602 187.52 50.3602 187.8C49.7736 188.067 49.1269 188.2 48.4202 188.2ZM47.6802 185.92C48.1069 185.92 48.4936 185.84 48.8402 185.68C49.2002 185.507 49.5069 185.28 49.7602 185C50.0269 184.72 50.2269 184.393 50.3602 184.02C50.5069 183.633 50.5802 183.233 50.5802 182.82C50.5802 182.247 50.4602 181.72 50.2202 181.24C49.9936 180.747 49.6736 180.353 49.2602 180.06C48.8602 179.767 48.3869 179.62 47.8402 179.62C47.4536 179.62 47.0802 179.713 46.7202 179.9C46.3736 180.073 46.0602 180.313 45.7802 180.62C45.5136 180.927 45.3002 181.273 45.1402 181.66V184.16C45.2202 184.427 45.3469 184.667 45.5202 184.88C45.7069 185.093 45.9202 185.28 46.1602 185.44C46.4002 185.587 46.6469 185.707 46.9002 185.8C47.1669 185.88 47.4269 185.92 47.6802 185.92Z" fill="black"/>
<path d="M118.589 51.48H120.269L123.401 60H121.697L120.905 57.876H117.929L117.149 60H115.445L118.589 51.48ZM120.605 56.712L119.429 53.196L118.205 56.712H120.605ZM133.947 60H132.339V56.472C132.339 55.976 132.251 55.612 132.075 55.38C131.907 55.14 131.671 55.02 131.367 55.02C131.055 55.02 130.755 55.144 130.467 55.392C130.187 55.632 129.987 55.948 129.867 56.34V60H128.259V56.472C128.259 55.968 128.171 55.6 127.995 55.368C127.827 55.136 127.591 55.02 127.287 55.02C126.975 55.02 126.675 55.14 126.387 55.38C126.107 55.62 125.907 55.936 125.787 56.328V60H124.179V53.712H125.631V54.876C125.871 54.468 126.191 54.156 126.591 53.94C126.991 53.716 127.451 53.604 127.971 53.604C128.491 53.604 128.895 53.732 129.183 53.988C129.479 54.244 129.667 54.56 129.747 54.936C130.003 54.504 130.327 54.176 130.719 53.952C131.119 53.72 131.567 53.604 132.063 53.604C132.455 53.604 132.771 53.676 133.011 53.82C133.259 53.956 133.451 54.144 133.587 54.384C133.723 54.616 133.815 54.88 133.863 55.176C133.919 55.472 133.947 55.772 133.947 56.076V60Z" fill="black"/>
<path d="M120.081 197.548V199H114.165V190.48H119.973V191.932H115.821V193.984H119.409V195.328H115.821V197.548H120.081ZM123.356 199.08C123.036 199.08 122.751 199.008 122.5 198.864C122.25 198.72 122.052 198.523 121.908 198.272V199H120.972V193.16H122.044V195.544C122.194 195.293 122.388 195.096 122.628 194.952C122.874 194.808 123.159 194.736 123.484 194.736C123.756 194.736 124.004 194.795 124.228 194.912C124.452 195.024 124.644 195.181 124.804 195.384C124.97 195.587 125.095 195.819 125.18 196.08C125.271 196.341 125.316 196.621 125.316 196.92C125.316 197.219 125.266 197.499 125.164 197.76C125.068 198.021 124.932 198.253 124.756 198.456C124.58 198.653 124.372 198.808 124.132 198.92C123.898 199.027 123.639 199.08 123.356 199.08ZM123.06 198.168C123.231 198.168 123.386 198.136 123.524 198.072C123.668 198.003 123.791 197.912 123.892 197.8C123.999 197.688 124.079 197.557 124.132 197.408C124.191 197.253 124.22 197.093 124.22 196.928C124.22 196.699 124.172 196.488 124.076 196.296C123.986 196.099 123.858 195.941 123.692 195.824C123.532 195.707 123.343 195.648 123.124 195.648C122.97 195.648 122.82 195.685 122.676 195.76C122.538 195.829 122.412 195.925 122.3 196.048C122.194 196.171 122.108 196.309 122.044 196.464V197.464C122.076 197.571 122.127 197.667 122.196 197.752C122.271 197.837 122.356 197.912 122.452 197.976C122.548 198.035 122.647 198.083 122.748 198.12C122.855 198.152 122.959 198.168 123.06 198.168ZM136.055 199H134.447V195.472C134.447 194.976 134.359 194.612 134.183 194.38C134.015 194.14 133.779 194.02 133.475 194.02C133.163 194.02 132.863 194.144 132.575 194.392C132.295 194.632 132.095 194.948 131.975 195.34V199H130.367V195.472C130.367 194.968 130.279 194.6 130.103 194.368C129.935 194.136 129.699 194.02 129.395 194.02C129.083 194.02 128.783 194.14 128.495 194.38C128.215 194.62 128.015 194.936 127.895 195.328V199H126.287V192.712H127.739V193.876C127.979 193.468 128.299 193.156 128.699 192.94C129.099 192.716 129.559 192.604 130.079 192.604C130.599 192.604 131.003 192.732 131.291 192.988C131.587 193.244 131.775 193.56 131.855 193.936C132.111 193.504 132.435 193.176 132.827 192.952C133.227 192.72 133.675 192.604 134.171 192.604C134.563 192.604 134.879 192.676 135.119 192.82C135.367 192.956 135.559 193.144 135.695 193.384C135.831 193.616 135.923 193.88 135.971 194.176C136.027 194.472 136.055 194.772 136.055 195.076V199Z" fill="black"/>
<path d="M158.134 70.548V72H152.218V63.48H158.026V64.932H153.874V66.984H157.462V68.328H153.874V70.548H158.134ZM169.002 72H167.394V68.472C167.394 67.976 167.306 67.612 167.13 67.38C166.962 67.14 166.726 67.02 166.422 67.02C166.11 67.02 165.81 67.144 165.522 67.392C165.242 67.632 165.042 67.948 164.922 68.34V72H163.314V68.472C163.314 67.968 163.226 67.6 163.05 67.368C162.882 67.136 162.646 67.02 162.342 67.02C162.03 67.02 161.73 67.14 161.442 67.38C161.162 67.62 160.962 67.936 160.842 68.328V72H159.234V65.712H160.686V66.876C160.926 66.468 161.246 66.156 161.646 65.94C162.046 65.716 162.506 65.604 163.026 65.604C163.546 65.604 163.95 65.732 164.238 65.988C164.534 66.244 164.722 66.56 164.802 66.936C165.058 66.504 165.382 66.176 165.774 65.952C166.174 65.72 166.622 65.604 167.118 65.604C167.51 65.604 167.826 65.676 168.066 65.82C168.314 65.956 168.506 66.144 168.642 66.384C168.778 66.616 168.87 66.88 168.918 67.176C168.974 67.472 169.002 67.772 169.002 68.076V72Z" fill="black"/>
<path d="M82.5208 72V63.48H85.6168C86.5448 63.48 87.3208 63.672 87.9448 64.056C88.5688 64.432 89.0368 64.944 89.3488 65.592C89.6608 66.232 89.8168 66.944 89.8168 67.728C89.8168 68.592 89.6448 69.344 89.3008 69.984C88.9568 70.624 88.4688 71.12 87.8368 71.472C87.2128 71.824 86.4728 72 85.6168 72H82.5208ZM88.1488 67.728C88.1488 67.176 88.0488 66.692 87.8488 66.276C87.6488 65.852 87.3608 65.524 86.9848 65.292C86.6088 65.052 86.1528 64.932 85.6168 64.932H84.1768V70.548H85.6168C86.1608 70.548 86.6208 70.428 86.9968 70.188C87.3728 69.94 87.6568 69.604 87.8488 69.18C88.0488 68.748 88.1488 68.264 88.1488 67.728ZM100.699 72H99.0912V68.472C99.0912 67.976 99.0032 67.612 98.8272 67.38C98.6592 67.14 98.4232 67.02 98.1192 67.02C97.8072 67.02 97.5072 67.144 97.2192 67.392C96.9392 67.632 96.7392 67.948 96.6192 68.34V72H95.0112V68.472C95.0112 67.968 94.9232 67.6 94.7472 67.368C94.5792 67.136 94.3432 67.02 94.0392 67.02C93.7272 67.02 93.4272 67.14 93.1392 67.38C92.8592 67.62 92.6592 67.936 92.5392 68.328V72H90.9312V65.712H92.3832V66.876C92.6232 66.468 92.9432 66.156 93.3432 65.94C93.7432 65.716 94.2032 65.604 94.7232 65.604C95.2432 65.604 95.6472 65.732 95.9352 65.988C96.2312 66.244 96.4192 66.56 96.4992 66.936C96.7552 66.504 97.0792 66.176 97.4712 65.952C97.8712 65.72 98.3192 65.604 98.8152 65.604C99.2072 65.604 99.5232 65.676 99.7632 65.82C100.011 65.956 100.203 66.144 100.339 66.384C100.475 66.616 100.567 66.88 100.615 67.176C100.671 67.472 100.699 67.772 100.699 68.076V72Z" fill="black"/>
<path d="M153.614 190.06C153.062 190.06 152.538 189.948 152.042 189.724C151.554 189.5 151.122 189.192 150.746 188.8C150.378 188.4 150.09 187.936 149.882 187.408C149.674 186.88 149.57 186.308 149.57 185.692C149.57 185.108 149.674 184.56 149.882 184.048C150.09 183.528 150.382 183.072 150.758 182.68C151.134 182.288 151.574 181.98 152.078 181.756C152.582 181.532 153.13 181.42 153.722 181.42C154.522 181.42 155.206 181.592 155.774 181.936C156.35 182.272 156.782 182.72 157.07 183.28L155.834 184.192C155.618 183.768 155.314 183.444 154.922 183.22C154.538 182.996 154.118 182.884 153.662 182.884C153.302 182.884 152.974 182.96 152.678 183.112C152.382 183.264 152.126 183.472 151.91 183.736C151.694 184 151.526 184.304 151.406 184.648C151.294 184.992 151.238 185.356 151.238 185.74C151.238 186.148 151.298 186.524 151.418 186.868C151.546 187.212 151.722 187.512 151.946 187.768C152.178 188.024 152.446 188.228 152.75 188.38C153.054 188.524 153.39 188.596 153.758 188.596C154.19 188.596 154.602 188.484 154.994 188.26C155.394 188.036 155.766 187.708 156.11 187.276V188.908C155.398 189.676 154.566 190.06 153.614 190.06ZM155.99 186.832H154.274V185.62H157.358V190H155.99V186.832ZM163.361 186.608H162.193L161.937 187.704H162.985V188.504H161.745L161.377 190H160.513L160.889 188.504H159.929L159.569 190H158.705L159.073 188.504H158.177V187.704H159.265L159.529 186.608H158.553V185.856H159.713L160.089 184.32H160.953L160.569 185.856H161.529L161.897 184.32H162.761L162.385 185.856H163.361V186.608ZM161.081 187.704L161.337 186.608H160.385L160.121 187.704H161.081ZM174.146 190H172.538V186.472C172.538 185.976 172.45 185.612 172.274 185.38C172.106 185.14 171.87 185.02 171.566 185.02C171.254 185.02 170.954 185.144 170.666 185.392C170.386 185.632 170.186 185.948 170.066 186.34V190H168.458V186.472C168.458 185.968 168.37 185.6 168.194 185.368C168.026 185.136 167.79 185.02 167.486 185.02C167.174 185.02 166.874 185.14 166.586 185.38C166.306 185.62 166.106 185.936 165.986 186.328V190H164.378V183.712H165.83V184.876C166.07 184.468 166.39 184.156 166.79 183.94C167.19 183.716 167.65 183.604 168.17 183.604C168.69 183.604 169.094 183.732 169.382 183.988C169.678 184.244 169.866 184.56 169.946 184.936C170.202 184.504 170.526 184.176 170.918 183.952C171.318 183.72 171.766 183.604 172.262 183.604C172.654 183.604 172.97 183.676 173.21 183.82C173.458 183.956 173.65 184.144 173.786 184.384C173.922 184.616 174.014 184.88 174.062 185.176C174.118 185.472 174.146 185.772 174.146 186.076V190Z" fill="black"/>
<path d="M85.0547 187.804C85.0547 188.284 84.9307 188.688 84.6827 189.016C84.4347 189.336 84.0987 189.58 83.6747 189.748C83.2587 189.916 82.8027 190 82.3067 190H78.1907V181.48H82.7507C83.1507 181.48 83.4947 181.588 83.7827 181.804C84.0787 182.012 84.3027 182.284 84.4547 182.62C84.6147 182.948 84.6947 183.292 84.6947 183.652C84.6947 184.06 84.5907 184.448 84.3827 184.816C84.1747 185.184 83.8707 185.456 83.4707 185.632C83.9587 185.776 84.3427 186.036 84.6227 186.412C84.9107 186.788 85.0547 187.252 85.0547 187.804ZM83.3867 187.492C83.3867 187.276 83.3427 187.084 83.2547 186.916C83.1667 186.74 83.0467 186.604 82.8947 186.508C82.7507 186.404 82.5827 186.352 82.3907 186.352H79.8467V188.596H82.3067C82.5067 188.596 82.6867 188.548 82.8467 188.452C83.0147 188.348 83.1467 188.212 83.2427 188.044C83.3387 187.876 83.3867 187.692 83.3867 187.492ZM79.8467 182.896V185.044H82.0547C82.2387 185.044 82.4067 185 82.5587 184.912C82.7107 184.824 82.8307 184.7 82.9187 184.54C83.0147 184.38 83.0627 184.188 83.0627 183.964C83.0627 183.748 83.0187 183.56 82.9307 183.4C82.8507 183.24 82.7387 183.116 82.5947 183.028C82.4587 182.94 82.3027 182.896 82.1267 182.896H79.8467ZM88.331 190.08C88.011 190.08 87.7257 190.008 87.475 189.864C87.2243 189.72 87.027 189.523 86.883 189.272V190H85.947V184.16H87.019V186.544C87.1683 186.293 87.363 186.096 87.603 185.952C87.8483 185.808 88.1337 185.736 88.459 185.736C88.731 185.736 88.979 185.795 89.203 185.912C89.427 186.024 89.619 186.181 89.779 186.384C89.9443 186.587 90.0697 186.819 90.155 187.08C90.2457 187.341 90.291 187.621 90.291 187.92C90.291 188.219 90.2403 188.499 90.139 188.76C90.043 189.021 89.907 189.253 89.731 189.456C89.555 189.653 89.347 189.808 89.107 189.92C88.8723 190.027 88.6137 190.08 88.331 190.08ZM88.035 189.168C88.2057 189.168 88.3603 189.136 88.499 189.072C88.643 189.003 88.7657 188.912 88.867 188.8C88.9737 188.688 89.0537 188.557 89.107 188.408C89.1657 188.253 89.195 188.093 89.195 187.928C89.195 187.699 89.147 187.488 89.051 187.296C88.9603 187.099 88.8323 186.941 88.667 186.824C88.507 186.707 88.3177 186.648 88.099 186.648C87.9443 186.648 87.795 186.685 87.651 186.76C87.5123 186.829 87.387 186.925 87.275 187.048C87.1683 187.171 87.083 187.309 87.019 187.464V188.464C87.051 188.571 87.1017 188.667 87.171 188.752C87.2457 188.837 87.331 188.912 87.427 188.976C87.523 189.035 87.6217 189.083 87.723 189.12C87.8297 189.152 87.9337 189.168 88.035 189.168ZM101.029 190H99.4213V186.472C99.4213 185.976 99.3333 185.612 99.1573 185.38C98.9893 185.14 98.7533 185.02 98.4493 185.02C98.1373 185.02 97.8373 185.144 97.5493 185.392C97.2693 185.632 97.0693 185.948 96.9493 186.34V190H95.3413V186.472C95.3413 185.968 95.2533 185.6 95.0773 185.368C94.9093 185.136 94.6733 185.02 94.3693 185.02C94.0573 185.02 93.7573 185.14 93.4693 185.38C93.1893 185.62 92.9893 185.936 92.8693 186.328V190H91.2613V183.712H92.7133V184.876C92.9533 184.468 93.2733 184.156 93.6733 183.94C94.0733 183.716 94.5333 183.604 95.0533 183.604C95.5733 183.604 95.9773 183.732 96.2653 183.988C96.5613 184.244 96.7493 184.56 96.8293 184.936C97.0853 184.504 97.4093 184.176 97.8013 183.952C98.2013 183.72 98.6493 183.604 99.1453 183.604C99.5373 183.604 99.8533 183.676 100.093 183.82C100.341 183.956 100.533 184.144 100.669 184.384C100.805 184.616 100.897 184.88 100.945 185.176C101.001 185.472 101.029 185.772 101.029 186.076V190Z" fill="black"/>
<path d="M184.59 90.804C184.59 91.284 184.466 91.688 184.218 92.016C183.97 92.336 183.634 92.58 183.21 92.748C182.794 92.916 182.338 93 181.842 93H177.726V84.48H182.286C182.686 84.48 183.03 84.588 183.318 84.804C183.614 85.012 183.838 85.284 183.99 85.62C184.15 85.948 184.23 86.292 184.23 86.652C184.23 87.06 184.126 87.448 183.918 87.816C183.71 88.184 183.406 88.456 183.006 88.632C183.494 88.776 183.878 89.036 184.158 89.412C184.446 89.788 184.59 90.252 184.59 90.804ZM182.922 90.492C182.922 90.276 182.878 90.084 182.79 89.916C182.702 89.74 182.582 89.604 182.43 89.508C182.286 89.404 182.118 89.352 181.926 89.352H179.382V91.596H181.842C182.042 91.596 182.222 91.548 182.382 91.452C182.55 91.348 182.682 91.212 182.778 91.044C182.874 90.876 182.922 90.692 182.922 90.492ZM179.382 85.896V88.044H181.59C181.774 88.044 181.942 88 182.094 87.912C182.246 87.824 182.366 87.7 182.454 87.54C182.55 87.38 182.598 87.188 182.598 86.964C182.598 86.748 182.554 86.56 182.466 86.4C182.386 86.24 182.274 86.116 182.13 86.028C181.994 85.94 181.838 85.896 181.662 85.896H179.382ZM195.494 93H193.886V89.472C193.886 88.976 193.798 88.612 193.622 88.38C193.454 88.14 193.218 88.02 192.914 88.02C192.602 88.02 192.302 88.144 192.014 88.392C191.734 88.632 191.534 88.948 191.414 89.34V93H189.806V89.472C189.806 88.968 189.718 88.6 189.542 88.368C189.374 88.136 189.138 88.02 188.834 88.02C188.522 88.02 188.222 88.14 187.934 88.38C187.654 88.62 187.454 88.936 187.334 89.328V93H185.726V86.712H187.178V87.876C187.418 87.468 187.738 87.156 188.138 86.94C188.538 86.716 188.998 86.604 189.518 86.604C190.038 86.604 190.442 86.732 190.73 86.988C191.026 87.244 191.214 87.56 191.294 87.936C191.55 87.504 191.874 87.176 192.266 86.952C192.666 86.72 193.114 86.604 193.61 86.604C194.002 86.604 194.318 86.676 194.558 86.82C194.806 86.956 194.998 87.144 195.134 87.384C195.27 87.616 195.362 87.88 195.41 88.176C195.466 88.472 195.494 88.772 195.494 89.076V93Z" fill="black"/>
<path d="M61.4707 93.2352C60.9187 93.2352 60.3947 93.1232 59.8987 92.8992C59.4107 92.6752 58.9787 92.3672 58.6027 91.9752C58.2347 91.5752 57.9467 91.1112 57.7387 90.5832C57.5307 90.0552 57.4267 89.4832 57.4267 88.8672C57.4267 88.2832 57.5307 87.7352 57.7387 87.2232C57.9467 86.7032 58.2387 86.2472 58.6147 85.8552C58.9907 85.4632 59.4307 85.1552 59.9347 84.9312C60.4387 84.7072 60.9867 84.5952 61.5787 84.5952C62.3787 84.5952 63.0627 84.7672 63.6307 85.1112C64.2067 85.4472 64.6387 85.8952 64.9267 86.4552L63.6907 87.3672C63.4747 86.9432 63.1707 86.6192 62.7787 86.3952C62.3947 86.1712 61.9747 86.0592 61.5187 86.0592C61.1587 86.0592 60.8307 86.1352 60.5347 86.2872C60.2387 86.4392 59.9827 86.6472 59.7667 86.9112C59.5507 87.1752 59.3827 87.4792 59.2627 87.8232C59.1507 88.1672 59.0947 88.5312 59.0947 88.9152C59.0947 89.3232 59.1547 89.6992 59.2747 90.0432C59.4027 90.3872 59.5787 90.6872 59.8027 90.9432C60.0347 91.1992 60.3027 91.4032 60.6067 91.5552C60.9107 91.6992 61.2467 91.7712 61.6147 91.7712C62.0467 91.7712 62.4587 91.6592 62.8507 91.4352C63.2507 91.2112 63.6227 90.8832 63.9667 90.4512V92.0832C63.2547 92.8512 62.4227 93.2352 61.4707 93.2352ZM63.8467 90.0072H62.1307V88.7952H65.2147V93.1752H63.8467V90.0072ZM76.238 93.1752H74.63V89.6472C74.63 89.1512 74.542 88.7872 74.366 88.5552C74.198 88.3152 73.962 88.1952 73.658 88.1952C73.346 88.1952 73.046 88.3192 72.758 88.5672C72.478 88.8072 72.278 89.1232 72.158 89.5152V93.1752H70.55V89.6472C70.55 89.1432 70.462 88.7752 70.286 88.5432C70.118 88.3112 69.882 88.1952 69.578 88.1952C69.266 88.1952 68.966 88.3152 68.678 88.5552C68.398 88.7952 68.198 89.1112 68.078 89.5032V93.1752H66.47V86.8872H67.922V88.0512C68.162 87.6432 68.482 87.3312 68.882 87.1152C69.282 86.8912 69.742 86.7792 70.262 86.7792C70.782 86.7792 71.186 86.9072 71.474 87.1632C71.77 87.4192 71.958 87.7352 72.038 88.1112C72.294 87.6792 72.618 87.3512 73.01 87.1272C73.41 86.8952 73.858 86.7792 74.354 86.7792C74.746 86.7792 75.062 86.8512 75.302 86.9952C75.55 87.1312 75.742 87.3192 75.878 87.5592C76.014 87.7912 76.106 88.0552 76.154 88.3512C76.21 88.6472 76.238 88.9472 76.238 89.2512V93.1752Z" fill="black"/>
<path d="M185.476 130V121.48H191.2V122.932H187.132V125.128H190.516V126.472H187.132V130H185.476ZM196.959 126.608H195.791L195.535 127.704H196.583V128.504H195.343L194.975 130H194.111L194.487 128.504H193.527L193.167 130H192.303L192.671 128.504H191.775V127.704H192.863L193.127 126.608H192.151V125.856H193.311L193.687 124.32H194.551L194.167 125.856H195.127L195.495 124.32H196.359L195.983 125.856H196.959V126.608ZM194.679 127.704L194.935 126.608H193.983L193.719 127.704H194.679ZM207.744 130H206.136V126.472C206.136 125.976 206.048 125.612 205.872 125.38C205.704 125.14 205.468 125.02 205.164 125.02C204.852 125.02 204.552 125.144 204.264 125.392C203.984 125.632 203.784 125.948 203.664 126.34V130H202.056V126.472C202.056 125.968 201.968 125.6 201.792 125.368C201.624 125.136 201.388 125.02 201.084 125.02C200.772 125.02 200.472 125.14 200.184 125.38C199.904 125.62 199.704 125.936 199.584 126.328V130H197.976V123.712H199.428V124.876C199.668 124.468 199.988 124.156 200.388 123.94C200.788 123.716 201.248 123.604 201.768 123.604C202.288 123.604 202.692 123.732 202.98 123.988C203.276 124.244 203.464 124.56 203.544 124.936C203.8 124.504 204.124 124.176 204.516 123.952C204.916 123.72 205.364 123.604 205.86 123.604C206.252 123.604 206.568 123.676 206.808 123.82C207.056 123.956 207.248 124.144 207.384 124.384C207.52 124.616 207.612 124.88 207.66 125.176C207.716 125.472 207.744 125.772 207.744 126.076V130Z" fill="black"/>
<path d="M47.4782 122.744C47.4782 122.224 47.5702 121.716 47.7542 121.22C47.9462 120.716 48.2222 120.26 48.5822 119.852C48.9422 119.436 49.3822 119.108 49.9022 118.868C50.4222 118.62 51.0142 118.496 51.6782 118.496C52.4622 118.496 53.1382 118.668 53.7062 119.012C54.2822 119.356 54.7102 119.804 54.9902 120.356L53.7182 121.232C53.5742 120.912 53.3862 120.66 53.1542 120.476C52.9222 120.284 52.6742 120.152 52.4102 120.08C52.1462 120 51.8862 119.96 51.6302 119.96C51.2142 119.96 50.8502 120.044 50.5382 120.212C50.2342 120.38 49.9782 120.6 49.7702 120.872C49.5622 121.144 49.4062 121.448 49.3022 121.784C49.2062 122.12 49.1582 122.456 49.1582 122.792C49.1582 123.168 49.2182 123.532 49.3382 123.884C49.4582 124.228 49.6262 124.536 49.8422 124.808C50.0662 125.072 50.3302 125.284 50.6342 125.444C50.9462 125.596 51.2862 125.672 51.6542 125.672C51.9182 125.672 52.1862 125.628 52.4582 125.54C52.7302 125.452 52.9822 125.312 53.2142 125.12C53.4462 124.928 53.6262 124.68 53.7542 124.376L55.1102 125.156C54.9422 125.58 54.6662 125.94 54.2822 126.236C53.9062 126.532 53.4822 126.756 53.0102 126.908C52.5382 127.06 52.0702 127.136 51.6062 127.136C50.9982 127.136 50.4422 127.012 49.9382 126.764C49.4342 126.508 48.9982 126.172 48.6302 125.756C48.2702 125.332 47.9862 124.86 47.7782 124.34C47.5782 123.812 47.4782 123.28 47.4782 122.744ZM65.8327 127.064H64.2247V123.536C64.2247 123.04 64.1367 122.676 63.9607 122.444C63.7927 122.204 63.5567 122.084 63.2527 122.084C62.9407 122.084 62.6407 122.208 62.3527 122.456C62.0727 122.696 61.8727 123.012 61.7527 123.404V127.064H60.1447V123.536C60.1447 123.032 60.0567 122.664 59.8807 122.432C59.7127 122.2 59.4767 122.084 59.1727 122.084C58.8607 122.084 58.5607 122.204 58.2727 122.444C57.9927 122.684 57.7927 123 57.6727 123.392V127.064H56.0647V120.776H57.5167V121.94C57.7567 121.532 58.0767 121.22 58.4767 121.004C58.8767 120.78 59.3367 120.668 59.8567 120.668C60.3767 120.668 60.7807 120.796 61.0687 121.052C61.3647 121.308 61.5527 121.624 61.6327 122C61.8887 121.568 62.2127 121.24 62.6047 121.016C63.0047 120.784 63.4527 120.668 63.9487 120.668C64.3407 120.668 64.6567 120.74 64.8967 120.884C65.1447 121.02 65.3367 121.208 65.4727 121.448C65.6087 121.68 65.7007 121.944 65.7487 122.24C65.8047 122.536 65.8327 122.836 65.8327 123.14V127.064Z" fill="black"/>
<path d="M175.792 158.68C175.792 158.16 175.884 157.652 176.068 157.156C176.26 156.652 176.536 156.196 176.896 155.788C177.256 155.372 177.696 155.044 178.216 154.804C178.736 154.556 179.328 154.432 179.992 154.432C180.776 154.432 181.452 154.604 182.02 154.948C182.596 155.292 183.024 155.74 183.304 156.292L182.032 157.168C181.888 156.848 181.7 156.596 181.468 156.412C181.236 156.22 180.988 156.088 180.724 156.016C180.46 155.936 180.2 155.896 179.944 155.896C179.528 155.896 179.164 155.98 178.852 156.148C178.548 156.316 178.292 156.536 178.084 156.808C177.876 157.08 177.72 157.384 177.616 157.72C177.52 158.056 177.472 158.392 177.472 158.728C177.472 159.104 177.532 159.468 177.652 159.82C177.772 160.164 177.94 160.472 178.156 160.744C178.38 161.008 178.644 161.22 178.948 161.38C179.26 161.532 179.6 161.608 179.968 161.608C180.232 161.608 180.5 161.564 180.772 161.476C181.044 161.388 181.296 161.248 181.528 161.056C181.76 160.864 181.94 160.616 182.068 160.312L183.424 161.092C183.256 161.516 182.98 161.876 182.596 162.172C182.22 162.468 181.796 162.692 181.324 162.844C180.852 162.996 180.384 163.072 179.92 163.072C179.312 163.072 178.756 162.948 178.252 162.7C177.748 162.444 177.312 162.108 176.944 161.692C176.584 161.268 176.3 160.796 176.092 160.276C175.892 159.748 175.792 159.216 175.792 158.68ZM189.126 159.608H187.958L187.702 160.704H188.75V161.504H187.51L187.142 163H186.278L186.654 161.504H185.694L185.334 163H184.47L184.838 161.504H183.942V160.704H185.03L185.294 159.608H184.318V158.856H185.478L185.854 157.32H186.718L186.334 158.856H187.294L187.662 157.32H188.526L188.15 158.856H189.126V159.608ZM186.846 160.704L187.102 159.608H186.15L185.886 160.704H186.846ZM199.912 163H198.304V159.472C198.304 158.976 198.216 158.612 198.04 158.38C197.872 158.14 197.636 158.02 197.332 158.02C197.02 158.02 196.72 158.144 196.432 158.392C196.152 158.632 195.952 158.948 195.832 159.34V163H194.224V159.472C194.224 158.968 194.136 158.6 193.96 158.368C193.792 158.136 193.556 158.02 193.252 158.02C192.94 158.02 192.64 158.14 192.352 158.38C192.072 158.62 191.872 158.936 191.752 159.328V163H190.144V156.712H191.596V157.876C191.836 157.468 192.156 157.156 192.556 156.94C192.956 156.716 193.416 156.604 193.936 156.604C194.456 156.604 194.86 156.732 195.148 156.988C195.444 157.244 195.632 157.56 195.712 157.936C195.968 157.504 196.292 157.176 196.684 156.952C197.084 156.72 197.532 156.604 198.028 156.604C198.42 156.604 198.736 156.676 198.976 156.82C199.224 156.956 199.416 157.144 199.552 157.384C199.688 157.616 199.78 157.88 199.828 158.176C199.884 158.472 199.912 158.772 199.912 159.076V163Z" fill="black"/>
<path d="M56.3075 161.321V152.801H62.0315V154.253H57.9635V156.449H61.3475V157.793H57.9635V161.321H56.3075ZM72.4937 161.321H70.8857V157.793C70.8857 157.297 70.7977 156.933 70.6217 156.701C70.4537 156.461 70.2177 156.341 69.9137 156.341C69.6017 156.341 69.3017 156.465 69.0137 156.713C68.7337 156.953 68.5337 157.269 68.4137 157.661V161.321H66.8057V157.793C66.8057 157.289 66.7177 156.921 66.5417 156.689C66.3737 156.457 66.1377 156.341 65.8337 156.341C65.5217 156.341 65.2217 156.461 64.9337 156.701C64.6537 156.941 64.4537 157.257 64.3337 157.649V161.321H62.7257V155.033H64.1777V156.197C64.4177 155.789 64.7377 155.477 65.1377 155.261C65.5377 155.037 65.9977 154.925 66.5177 154.925C67.0377 154.925 67.4417 155.053 67.7297 155.309C68.0257 155.565 68.2137 155.881 68.2937 156.257C68.5497 155.825 68.8737 155.497 69.2657 155.273C69.6657 155.041 70.1137 154.925 70.6097 154.925C71.0017 154.925 71.3177 154.997 71.5577 155.141C71.8057 155.277 71.9977 155.465 72.1337 155.705C72.2697 155.937 72.3617 156.201 72.4097 156.497C72.4657 156.793 72.4937 157.093 72.4937 157.397V161.321Z" fill="black"/>
</svg>
