<svg width="134" height="145" viewBox="0 0 134 145" fill="none" xmlns="http://www.w3.org/2000/svg">
<line y1="28.5" x2="134" y2="28.5" stroke="black" stroke-width="3"/>
<line y1="48.5" x2="134" y2="48.5" stroke="black" stroke-width="3"/>
<line y1="68.5" x2="134" y2="68.5" stroke="black" stroke-width="3"/>
<line y1="88.5" x2="134" y2="88.5" stroke="black" stroke-width="3"/>
<line x1="67" y1="128" x2="123" y2="128" stroke="black" stroke-width="2"/>
<line y1="108.5" x2="134" y2="108.5" stroke="black" stroke-width="3"/>
<g clip-path="url(#clip0_23_65)">
<path fill-rule="evenodd" clip-rule="evenodd" d="M41.7448 74.9296C39.736 75.4909 37.9248 76.7456 36.2453 78.6605C34.5657 80.6085 33.7425 82.7546 33.7425 85.0657C33.7425 86.5185 34.2364 88.1693 35.1914 89.9192C36.1465 91.7021 37.5954 92.9897 39.4725 93.8151C40.0982 93.9472 40.3946 94.2774 40.3946 94.7396C40.3946 94.9047 40.1641 95.0698 39.6043 95.2018C36.6075 94.4424 34.1376 92.8246 32.2276 90.4144C30.3176 87.9712 29.3296 85.1978 29.2638 82.0282C29.3626 78.6275 30.3835 75.4579 32.3264 72.5524C34.3023 69.614 36.838 67.5339 39.9336 66.3123L37.6613 54.5914C32.5899 58.8175 28.4734 63.2087 25.2791 67.8311C22.0847 72.4204 20.4382 77.4059 20.3064 82.7876C20.3723 85.1978 20.8663 87.542 21.7883 89.7871C22.7104 92.0653 24.0935 94.1123 25.9377 95.9942C29.659 99.7251 34.4999 101.673 40.3946 101.871C42.4034 101.739 44.544 101.376 46.8492 100.782L41.7448 74.9296ZM44.1159 74.5995L49.2532 99.9892C54.3246 97.9422 56.8603 93.485 56.8603 86.6835C56.564 84.4054 55.9053 82.3584 54.7857 80.5425C53.6989 78.6935 52.2499 77.2408 50.4058 76.1843C48.5616 75.1277 46.4869 74.5995 44.1159 74.5995ZM37.3649 40.2622C38.4517 39.6019 39.7031 38.4463 41.0532 36.8285C42.4034 35.2437 43.7207 33.3617 44.9721 31.2487C46.2564 29.1026 47.2773 26.9235 48.0347 24.7114C48.7921 22.5323 49.1544 20.4523 49.1544 18.5373C49.1544 17.7119 49.0885 16.8865 48.9239 16.1601C48.7921 14.9715 48.4299 14.047 47.8042 13.4197C47.1785 12.8254 46.3881 12.4953 45.4002 12.4953C43.4243 12.4953 41.646 13.7169 40.0653 16.1601C38.8468 18.2732 37.826 20.7824 37.1015 23.6218C36.344 26.4943 35.9159 29.3337 35.8501 32.2062C36.0147 35.4748 36.5416 38.1491 37.3649 40.2622ZM35.2902 42.1772C33.8083 36.8285 32.985 31.3807 32.8204 25.834C32.8533 22.2682 33.2156 18.9335 33.9071 15.8299C34.5657 12.7264 35.5208 10.052 36.7722 7.74087C37.9906 5.4297 39.4067 3.67982 40.9874 2.49123C42.4034 1.4347 43.4243 0.873413 43.9841 0.873413C44.4123 0.873413 44.7745 1.0385 45.1038 1.33565C45.4331 1.63279 45.8612 2.12804 46.3881 2.78838C50.307 8.36818 52.2829 15.1036 52.2829 22.9615C52.2829 26.6924 51.7889 30.3242 50.801 33.956C49.8459 37.5549 48.4299 40.9886 46.5528 44.1912C44.6428 47.4268 42.4034 50.2332 39.8018 52.6434L42.4693 65.652C43.9183 65.4869 44.9062 65.3548 45.4661 65.3548C47.9688 65.3548 50.2082 65.8831 52.2829 66.9396C54.3576 67.9962 56.1358 69.4159 57.5848 71.2318C59.0338 73.0147 60.1535 75.0617 60.9438 77.3729C61.7013 79.684 62.1294 82.0942 62.1294 84.6035C62.1294 88.4995 61.1085 92.0653 59.0667 95.2679C57.025 98.4705 53.9624 100.815 49.8459 102.333C50.1094 103.951 50.5704 106.295 51.262 109.3C51.9206 112.337 52.4146 114.748 52.7439 116.531C53.0732 118.313 53.205 120.03 53.205 121.714C53.205 124.322 52.5793 126.634 51.3279 128.681C50.0435 130.728 48.3311 132.312 46.1576 133.435C44.0171 134.558 41.646 135.119 39.0774 135.119C35.4549 135.119 32.2935 134.095 29.5931 132.081C26.8927 130.034 25.4437 127.294 25.312 123.794C25.4108 122.242 25.7731 120.79 26.4317 119.403C27.0903 118.016 27.9795 116.894 29.1321 116.035C30.2517 115.144 31.6019 114.682 33.1497 114.583C34.434 114.583 35.6525 114.946 36.8051 115.639C37.9248 116.365 38.8468 117.323 39.5384 118.545C40.197 119.766 40.5593 121.12 40.5593 122.573C40.5593 124.521 39.9006 126.171 38.5834 127.525C37.2661 128.879 35.5866 129.572 33.5778 129.572H32.8204C34.1047 131.553 36.2123 132.577 39.1432 132.577C40.6251 132.577 42.14 132.246 43.6548 131.652C45.2026 131.025 46.4869 130.199 47.5737 129.143C48.6604 128.086 49.3849 126.964 49.6813 125.775C50.2411 124.422 50.5046 122.54 50.5046 120.195C50.5046 118.611 50.3399 117.026 50.0435 115.441C49.7471 113.889 49.2861 111.809 48.6604 109.234C48.0347 106.692 47.5737 104.711 47.3102 103.357C45.3343 103.852 43.2926 104.116 41.152 104.116C37.5625 104.116 34.1706 103.39 30.9762 101.904C27.7819 100.418 24.9827 98.3714 22.5458 95.7301C20.1418 93.0888 18.2647 90.1173 16.9145 86.7496C15.5972 83.4149 14.9057 79.9151 14.8727 76.2833C15.0045 72.9156 15.6302 69.68 16.8157 66.6425C18.0012 63.5719 19.5161 60.6665 21.3932 57.9591C23.2703 55.2517 25.2132 52.7755 27.222 50.5634C29.2638 48.3843 31.9312 45.5779 35.2902 42.1772Z" fill="#131516" stroke="#131516" stroke-width="0.647175"/>
</g>
<path d="M77.0204 130.245C76.7451 128.506 76.9342 126.802 77.5877 125.133C78.2676 123.459 79.5465 121.988 81.4244 120.718C83.3328 119.471 85.9858 118.578 89.3834 118.04C92.4124 117.561 95.0977 117.554 97.4394 118.02C99.7853 118.512 101.683 119.413 103.132 120.723C104.582 122.032 105.465 123.688 105.782 125.689C106.103 127.717 105.775 129.565 104.797 131.232C103.823 132.925 102.295 134.355 100.211 135.522C98.1325 136.715 95.5786 137.551 92.5497 138.031C89.152 138.569 86.3509 138.527 84.1464 137.904C81.9723 137.304 80.3034 136.312 79.1396 134.931C78.0063 133.571 77.2999 132.009 77.0204 130.245ZM78.6007 129.994C78.7717 131.074 79.2712 131.927 80.0992 132.551C80.9576 133.198 82.0281 133.65 83.3106 133.906C84.6194 134.157 86.0259 134.259 87.53 134.209C89.0383 134.186 90.5431 134.056 92.0444 133.818C93.4404 133.597 94.8875 133.274 96.386 132.847C97.8844 132.421 99.2566 131.88 100.503 131.223C101.749 130.567 102.719 129.792 103.415 128.899C104.115 128.032 104.377 127.046 104.202 125.94C104.026 124.833 103.47 123.963 102.533 123.328C101.599 122.72 100.439 122.297 99.0509 122.057C97.6631 121.818 96.1907 121.728 94.6339 121.785C93.0771 121.843 91.6007 121.982 90.2048 122.203C88.7035 122.441 87.23 122.769 85.7842 123.187C84.3426 123.631 83.0383 124.175 81.8714 124.819C80.7307 125.459 79.8501 126.206 79.2294 127.06C78.6392 127.936 78.4297 128.914 78.6007 129.994Z" fill="black"/>
<path d="M77.0204 90.2446C76.7451 88.5063 76.9342 86.8024 77.5877 85.1329C78.2676 83.4593 79.5465 81.9878 81.4244 80.7184C83.3328 79.4712 85.9858 78.5785 89.3834 78.0403C92.4124 77.5606 95.0977 77.5538 97.4394 78.0199C99.7853 78.5123 101.683 79.4132 103.132 80.7226C104.582 82.032 105.465 83.6875 105.782 85.6892C106.103 87.7173 105.775 89.5647 104.797 91.2316C103.823 92.9248 102.295 94.3548 100.211 95.5217C98.1325 96.7149 95.5786 97.5514 92.5497 98.0312C89.152 98.5693 86.3509 98.527 84.1464 97.9042C81.9723 97.3035 80.3034 96.3124 79.1396 94.9308C78.0063 93.5713 77.2999 92.0093 77.0204 90.2446ZM78.6007 89.9943C78.7717 91.0742 79.2712 91.9265 80.0992 92.5514C80.9576 93.1984 82.0281 93.6498 83.3106 93.9057C84.6194 94.1574 86.0259 94.2586 87.53 94.2094C89.0383 94.1865 90.5431 94.0561 92.0444 93.8183C93.4404 93.5972 94.8875 93.2735 96.386 92.8472C97.8844 92.4209 99.2566 91.8796 100.503 91.2232C101.749 90.5669 102.719 89.7922 103.415 88.899C104.115 88.0322 104.377 87.0457 104.202 85.9395C104.026 84.8333 103.47 83.963 102.533 83.3285C101.599 82.7203 100.439 82.2967 99.0509 82.0575C97.6631 81.8183 96.1907 81.7275 94.6339 81.7851C93.0771 81.8427 91.6007 81.982 90.2048 82.2031C88.7035 82.4409 87.23 82.7688 85.7842 83.1868C84.3426 83.6311 83.0383 84.1751 81.8714 84.8189C80.7307 85.4586 79.8501 86.2056 79.2294 87.0598C78.6392 87.9363 78.4297 88.9144 78.6007 89.9943Z" fill="black"/>
<defs>
<clipPath id="clip0_23_65">
<rect width="49" height="136" fill="white" transform="translate(14)"/>
</clipPath>
</defs>
</svg>
