<svg width="400" height="157" viewBox="0 0 400 157" fill="none" xmlns="http://www.w3.org/2000/svg">
<path d="M2.7 123.44L11.628 137.588L20.592 123.44H22.644L12.564 139.352V149H10.728V139.28L0.684 123.44H2.7ZM35.1571 149.18C33.3811 149.18 31.7611 148.82 30.2971 148.1C28.8331 147.356 27.5731 146.372 26.5171 145.148C25.4611 143.924 24.6451 142.544 24.0691 141.008C23.4931 139.448 23.2051 137.852 23.2051 136.22C23.2051 134.516 23.5051 132.896 24.1051 131.36C24.7051 129.8 25.5451 128.42 26.6251 127.22C27.7291 125.996 29.0011 125.036 30.4411 124.34C31.9051 123.62 33.4891 123.26 35.1931 123.26C36.9931 123.26 38.6131 123.632 40.0531 124.376C41.5171 125.12 42.7771 126.116 43.8331 127.364C44.8891 128.612 45.7051 130.004 46.2811 131.54C46.8571 133.076 47.1451 134.636 47.1451 136.22C47.1451 137.948 46.8451 139.592 46.2451 141.152C45.6451 142.688 44.7931 144.068 43.6891 145.292C42.6091 146.492 41.3371 147.44 39.8731 148.136C38.4331 148.832 36.8611 149.18 35.1571 149.18ZM25.0411 136.22C25.0411 137.684 25.2931 139.088 25.7971 140.432C26.3011 141.776 26.9971 142.976 27.8851 144.032C28.7971 145.088 29.8651 145.928 31.0891 146.552C32.3371 147.176 33.7051 147.488 35.1931 147.488C36.7051 147.488 38.0851 147.164 39.3331 146.516C40.5811 145.868 41.6491 145.004 42.5371 143.924C43.4251 142.844 44.0971 141.644 44.5531 140.324C45.0331 138.98 45.2731 137.612 45.2731 136.22C45.2731 134.756 45.0211 133.352 44.5171 132.008C44.0371 130.664 43.3411 129.464 42.4291 128.408C41.5171 127.352 40.4371 126.512 39.1891 125.888C37.9651 125.264 36.6331 124.952 35.1931 124.952C33.6571 124.952 32.2651 125.276 31.0171 125.924C29.7691 126.572 28.7011 127.436 27.8131 128.516C26.9491 129.596 26.2651 130.808 25.7611 132.152C25.2811 133.472 25.0411 134.828 25.0411 136.22ZM62.3706 149.18C60.3306 149.18 58.6266 148.82 57.2586 148.1C55.8906 147.38 54.7986 146.408 53.9826 145.184C53.1666 143.936 52.5786 142.544 52.2186 141.008C51.8586 139.472 51.6786 137.9 51.6786 136.292V123.44H53.5146V136.292C53.5146 137.684 53.6586 139.052 53.9466 140.396C54.2346 141.74 54.7026 142.952 55.3506 144.032C56.0226 145.088 56.9226 145.928 58.0506 146.552C59.2026 147.176 60.6306 147.488 62.3346 147.488C64.0626 147.488 65.4906 147.164 66.6186 146.516C67.7706 145.868 68.6706 145.016 69.3186 143.96C69.9906 142.88 70.4586 141.68 70.7226 140.36C71.0106 139.016 71.1546 137.66 71.1546 136.292V123.44H72.9906V136.292C72.9906 137.996 72.7986 139.628 72.4146 141.188C72.0546 142.724 71.4546 144.092 70.6146 145.292C69.7746 146.492 68.6826 147.44 67.3386 148.136C65.9946 148.832 64.3386 149.18 62.3706 149.18ZM79.2855 149V123.44H89.9055C91.0095 123.44 92.0055 123.668 92.8935 124.124C93.8055 124.58 94.5855 125.192 95.2335 125.96C95.9055 126.704 96.4215 127.544 96.7815 128.48C97.1655 129.416 97.3575 130.376 97.3575 131.36C97.3575 132.632 97.1055 133.82 96.6015 134.924C96.0975 136.028 95.3895 136.952 94.4775 137.696C93.5895 138.44 92.5455 138.896 91.3455 139.064L97.7175 149H95.5935L89.4015 139.352H81.1215V149H79.2855ZM81.1215 137.66H90.0855C91.1895 137.66 92.1495 137.36 92.9655 136.76C93.7815 136.16 94.4055 135.38 94.8375 134.42C95.2935 133.46 95.5215 132.44 95.5215 131.36C95.5215 130.256 95.2575 129.236 94.7295 128.3C94.2255 127.34 93.5415 126.572 92.6775 125.996C91.8375 125.396 90.8895 125.096 89.8335 125.096H81.1215V137.66ZM135.059 149V127.004L125.015 144.212H123.791L113.747 127.004V149H111.911V123.44H113.747L124.403 141.728L135.059 123.44H136.895V149H135.059ZM153.882 149.18C151.842 149.18 150.138 148.82 148.77 148.1C147.402 147.38 146.31 146.408 145.494 145.184C144.678 143.936 144.09 142.544 143.73 141.008C143.37 139.472 143.19 137.9 143.19 136.292V123.44H145.026V136.292C145.026 137.684 145.17 139.052 145.458 140.396C145.746 141.74 146.214 142.952 146.862 144.032C147.534 145.088 148.434 145.928 149.562 146.552C150.714 147.176 152.142 147.488 153.846 147.488C155.574 147.488 157.002 147.164 158.13 146.516C159.282 145.868 160.182 145.016 160.83 143.96C161.502 142.88 161.97 141.68 162.234 140.36C162.522 139.016 162.666 137.66 162.666 136.292V123.44H164.502V136.292C164.502 137.996 164.31 139.628 163.926 141.188C163.566 142.724 162.966 144.092 162.126 145.292C161.286 146.492 160.194 147.44 158.85 148.136C157.506 148.832 155.85 149.18 153.882 149.18ZM185.665 127.688C185.257 127.232 184.801 126.836 184.297 126.5C183.793 126.14 183.253 125.852 182.677 125.636C182.101 125.396 181.477 125.216 180.805 125.096C180.133 124.976 179.413 124.916 178.645 124.916C176.149 124.916 174.325 125.396 173.173 126.356C172.045 127.292 171.481 128.564 171.481 130.172C171.481 131.252 171.733 132.116 172.237 132.764C172.765 133.388 173.581 133.892 174.685 134.276C175.789 134.66 177.217 135.032 178.969 135.392C180.817 135.776 182.413 136.232 183.757 136.76C185.101 137.264 186.133 137.96 186.853 138.848C187.597 139.736 187.969 140.936 187.969 142.448C187.969 143.576 187.753 144.572 187.321 145.436C186.889 146.276 186.265 146.972 185.449 147.524C184.633 148.076 183.661 148.496 182.533 148.784C181.429 149.072 180.193 149.216 178.825 149.216C177.505 149.216 176.245 149.072 175.045 148.784C173.845 148.496 172.717 148.076 171.661 147.524C170.605 146.972 169.621 146.264 168.709 145.4L169.681 143.924C170.209 144.5 170.797 145.016 171.445 145.472C172.117 145.904 172.837 146.276 173.605 146.588C174.397 146.9 175.237 147.152 176.125 147.344C177.013 147.512 177.937 147.596 178.897 147.596C181.129 147.596 182.869 147.188 184.117 146.372C185.389 145.532 186.025 144.296 186.025 142.664C186.025 141.536 185.737 140.624 185.161 139.928C184.585 139.232 183.697 138.668 182.497 138.236C181.297 137.78 179.797 137.36 177.997 136.976C176.197 136.592 174.661 136.16 173.389 135.68C172.141 135.2 171.193 134.552 170.545 133.736C169.921 132.92 169.609 131.816 169.609 130.424C169.609 128.888 169.981 127.592 170.725 126.536C171.493 125.456 172.561 124.64 173.929 124.088C175.297 123.536 176.869 123.26 178.645 123.26C179.749 123.26 180.769 123.368 181.705 123.584C182.665 123.8 183.541 124.136 184.333 124.592C185.149 125.024 185.905 125.576 186.601 126.248L185.665 127.688ZM192.594 149V123.44H194.43V149H192.594ZM199.373 136.04C199.373 134.504 199.637 132.992 200.165 131.504C200.717 129.992 201.509 128.624 202.541 127.4C203.573 126.152 204.833 125.156 206.321 124.412C207.833 123.668 209.549 123.296 211.469 123.296C213.749 123.296 215.693 123.824 217.301 124.88C218.909 125.912 220.109 127.244 220.901 128.876L219.389 129.74C218.789 128.564 218.045 127.628 217.157 126.932C216.293 126.236 215.357 125.744 214.349 125.456C213.341 125.144 212.333 124.988 211.325 124.988C209.717 124.988 208.277 125.312 207.005 125.96C205.757 126.608 204.701 127.472 203.837 128.552C202.973 129.632 202.313 130.832 201.857 132.152C201.425 133.472 201.209 134.804 201.209 136.148C201.209 137.66 201.473 139.1 202.001 140.468C202.529 141.812 203.249 143.012 204.161 144.068C205.097 145.124 206.177 145.964 207.401 146.588C208.649 147.212 209.993 147.524 211.433 147.524C212.465 147.524 213.509 147.356 214.565 147.02C215.645 146.66 216.653 146.12 217.589 145.4C218.525 144.656 219.281 143.696 219.857 142.52L221.441 143.276C220.889 144.548 220.061 145.628 218.957 146.516C217.853 147.404 216.629 148.076 215.285 148.532C213.941 148.988 212.609 149.216 211.289 149.216C209.561 149.216 207.965 148.844 206.501 148.1C205.037 147.332 203.765 146.324 202.685 145.076C201.629 143.804 200.813 142.388 200.237 140.828C199.661 139.244 199.373 137.648 199.373 136.04ZM252.04 125.096H242.68V149H240.844V125.096H231.484V123.44H252.04V125.096ZM265.184 149.18C263.408 149.18 261.788 148.82 260.324 148.1C258.86 147.356 257.6 146.372 256.544 145.148C255.488 143.924 254.672 142.544 254.096 141.008C253.52 139.448 253.232 137.852 253.232 136.22C253.232 134.516 253.532 132.896 254.132 131.36C254.732 129.8 255.572 128.42 256.652 127.22C257.756 125.996 259.028 125.036 260.468 124.34C261.932 123.62 263.516 123.26 265.22 123.26C267.02 123.26 268.64 123.632 270.08 124.376C271.544 125.12 272.804 126.116 273.86 127.364C274.916 128.612 275.732 130.004 276.308 131.54C276.884 133.076 277.172 134.636 277.172 136.22C277.172 137.948 276.872 139.592 276.272 141.152C275.672 142.688 274.82 144.068 273.716 145.292C272.636 146.492 271.364 147.44 269.9 148.136C268.46 148.832 266.888 149.18 265.184 149.18ZM255.068 136.22C255.068 137.684 255.32 139.088 255.824 140.432C256.328 141.776 257.024 142.976 257.912 144.032C258.824 145.088 259.892 145.928 261.116 146.552C262.364 147.176 263.732 147.488 265.22 147.488C266.732 147.488 268.112 147.164 269.36 146.516C270.608 145.868 271.676 145.004 272.564 143.924C273.452 142.844 274.124 141.644 274.58 140.324C275.06 138.98 275.3 137.612 275.3 136.22C275.3 134.756 275.048 133.352 274.544 132.008C274.064 130.664 273.368 129.464 272.456 128.408C271.544 127.352 270.464 126.512 269.216 125.888C267.992 125.264 266.66 124.952 265.22 124.952C263.684 124.952 262.292 125.276 261.044 125.924C259.796 126.572 258.728 127.436 257.84 128.516C256.976 129.596 256.292 130.808 255.788 132.152C255.308 133.472 255.068 134.828 255.068 136.22ZM292.29 149.18C290.514 149.18 288.894 148.82 287.43 148.1C285.966 147.356 284.706 146.372 283.65 145.148C282.594 143.924 281.778 142.544 281.202 141.008C280.626 139.448 280.338 137.852 280.338 136.22C280.338 134.516 280.638 132.896 281.238 131.36C281.838 129.8 282.678 128.42 283.758 127.22C284.862 125.996 286.134 125.036 287.574 124.34C289.038 123.62 290.622 123.26 292.326 123.26C294.126 123.26 295.746 123.632 297.186 124.376C298.65 125.12 299.91 126.116 300.966 127.364C302.022 128.612 302.838 130.004 303.414 131.54C303.99 133.076 304.278 134.636 304.278 136.22C304.278 137.948 303.978 139.592 303.378 141.152C302.778 142.688 301.926 144.068 300.822 145.292C299.742 146.492 298.47 147.44 297.006 148.136C295.566 148.832 293.994 149.18 292.29 149.18ZM282.174 136.22C282.174 137.684 282.426 139.088 282.93 140.432C283.434 141.776 284.13 142.976 285.018 144.032C285.93 145.088 286.998 145.928 288.222 146.552C289.47 147.176 290.838 147.488 292.326 147.488C293.838 147.488 295.218 147.164 296.466 146.516C297.714 145.868 298.782 145.004 299.67 143.924C300.558 142.844 301.23 141.644 301.686 140.324C302.166 138.98 302.406 137.612 302.406 136.22C302.406 134.756 302.154 133.352 301.65 132.008C301.17 130.664 300.474 129.464 299.562 128.408C298.65 127.352 297.57 126.512 296.322 125.888C295.098 125.264 293.766 124.952 292.326 124.952C290.79 124.952 289.398 125.276 288.15 125.924C286.902 126.572 285.834 127.436 284.946 128.516C284.082 129.596 283.398 130.808 282.894 132.152C282.414 133.472 282.174 134.828 282.174 136.22ZM309.207 149V123.44H311.043V147.344H326.307V149H309.207ZM348.953 142.376C348.953 143.624 348.641 144.752 348.017 145.76C347.417 146.744 346.589 147.536 345.533 148.136C344.501 148.712 343.349 149 342.077 149H330.125V123.44H342.041C343.241 123.44 344.273 123.764 345.137 124.412C346.025 125.036 346.697 125.852 347.153 126.86C347.633 127.844 347.873 128.876 347.873 129.956C347.873 131.228 347.549 132.416 346.901 133.52C346.253 134.6 345.353 135.392 344.201 135.896C345.665 136.328 346.817 137.144 347.657 138.344C348.521 139.52 348.953 140.864 348.953 142.376ZM347.117 142.124C347.117 141.212 346.901 140.36 346.469 139.568C346.061 138.776 345.497 138.128 344.777 137.624C344.057 137.12 343.241 136.868 342.329 136.868H331.961V147.344H342.077C343.013 147.344 343.865 147.104 344.633 146.624C345.401 146.12 346.001 145.472 346.433 144.68C346.889 143.864 347.117 143.012 347.117 142.124ZM331.961 125.096V135.32H341.321C342.257 135.32 343.073 135.08 343.769 134.6C344.489 134.096 345.053 133.46 345.461 132.692C345.869 131.9 346.073 131.072 346.073 130.208C346.073 129.272 345.881 128.42 345.497 127.652C345.113 126.884 344.573 126.272 343.877 125.816C343.205 125.336 342.425 125.096 341.537 125.096H331.961ZM364.149 149.18C362.373 149.18 360.753 148.82 359.289 148.1C357.825 147.356 356.565 146.372 355.509 145.148C354.453 143.924 353.637 142.544 353.061 141.008C352.485 139.448 352.197 137.852 352.197 136.22C352.197 134.516 352.497 132.896 353.097 131.36C353.697 129.8 354.537 128.42 355.617 127.22C356.721 125.996 357.993 125.036 359.433 124.34C360.897 123.62 362.481 123.26 364.185 123.26C365.985 123.26 367.605 123.632 369.045 124.376C370.509 125.12 371.769 126.116 372.825 127.364C373.881 128.612 374.697 130.004 375.273 131.54C375.849 133.076 376.137 134.636 376.137 136.22C376.137 137.948 375.837 139.592 375.237 141.152C374.637 142.688 373.785 144.068 372.681 145.292C371.601 146.492 370.329 147.44 368.865 148.136C367.425 148.832 365.853 149.18 364.149 149.18ZM354.033 136.22C354.033 137.684 354.285 139.088 354.789 140.432C355.293 141.776 355.989 142.976 356.877 144.032C357.789 145.088 358.857 145.928 360.081 146.552C361.329 147.176 362.697 147.488 364.185 147.488C365.697 147.488 367.077 147.164 368.325 146.516C369.573 145.868 370.641 145.004 371.529 143.924C372.417 142.844 373.089 141.644 373.545 140.324C374.025 138.98 374.265 137.612 374.265 136.22C374.265 134.756 374.013 133.352 373.509 132.008C373.029 130.664 372.333 129.464 371.421 128.408C370.509 127.352 369.429 126.512 368.181 125.888C366.957 125.264 365.625 124.952 364.185 124.952C362.649 124.952 361.257 125.276 360.009 125.924C358.761 126.572 357.693 127.436 356.805 128.516C355.941 129.596 355.257 130.808 354.753 132.152C354.273 133.472 354.033 134.828 354.033 136.22ZM378.935 123.44L387.863 135.032L396.755 123.44H398.879L388.871 136.4L398.591 149H396.467L387.863 137.768L379.223 149H377.063L386.783 136.4L376.775 123.44H378.935Z" fill="white"/>
<path d="M189.424 104.234H235.604L209 31.0471L181.016 108H177L209 20L241 108H189.424V104.234Z" fill="white"/>
<path d="M79.42 38.425C77.8867 36.815 76.315 35.435 74.705 34.285C73.095 33.135 71.37 32.215 69.53 31.525C67.69 30.835 65.735 30.3367 63.665 30.03C61.595 29.6467 59.3333 29.455 56.88 29.455C48.2167 29.455 41.93 31.1033 38.02 34.4C34.11 37.6967 32.155 42.105 32.155 47.625C32.155 51.3817 32.9983 54.3333 34.685 56.48C36.3717 58.6267 39.055 60.3517 42.735 61.655C46.415 62.8817 51.1683 64.1083 56.995 65.335C62.975 66.5617 68.15 67.98 72.52 69.59C76.89 71.2 80.2633 73.385 82.64 76.145C85.0167 78.905 86.205 82.7 86.205 87.53C86.205 90.98 85.515 94.0467 84.135 96.73C82.8317 99.3367 80.915 101.522 78.385 103.285C75.855 105.048 72.7883 106.39 69.185 107.31C65.6583 108.153 61.71 108.575 57.34 108.575C52.97 108.575 48.9067 108.153 45.15 107.31C41.3933 106.39 37.8667 105.01 34.57 103.17C31.2733 101.33 28.1683 98.9917 25.255 96.155L27.67 93.165C29.51 95.1583 31.5033 96.9217 33.65 98.455C35.8733 99.9117 38.2117 101.138 40.665 102.135C43.195 103.132 45.84 103.898 48.6 104.435C51.4367 104.895 54.3883 105.125 57.455 105.125C65.1217 105.125 71.14 103.707 75.51 100.87C79.9567 97.9567 82.18 93.7017 82.18 88.105C82.18 84.195 81.2217 81.09 79.305 78.79C77.3883 76.4133 74.475 74.4967 70.565 73.04C66.655 71.5067 61.6717 70.1267 55.615 68.9C49.7117 67.6733 44.69 66.3317 40.55 64.875C36.4867 63.4183 33.3817 61.3867 31.235 58.78C29.165 56.1733 28.13 52.6467 28.13 48.2C28.13 43.37 29.3183 39.3067 31.695 36.01C34.0717 32.6367 37.4067 30.1067 41.7 28.42C45.9933 26.6567 51.015 25.775 56.765 25.775C60.2917 25.775 63.5117 26.12 66.425 26.81C69.3383 27.5 72.0217 28.535 74.475 29.915C77.005 31.295 79.3817 33.135 81.605 35.435L79.42 38.425ZM101.332 108V26.35H105.357V77.755L155.267 26.35H160.212L125.827 62.115L161.822 108H157.107L123.067 64.645L105.357 82.7V108H101.332ZM256.449 108V26.35H260.474V104.32H310.499V108H256.449ZM377.093 104.32V108H323.158V26.35H376.058V30.03H327.183V64.415H369.963V68.095H327.183V104.32H377.093Z" fill="white"/>
</svg>
